<?xml version="1.0" encoding="UTF-8" standalone="no"?>

<svg
   width="16"
   height="16"
   version="1.1"
   id="icon"
   inkscape:version="1.1.1 (3bf5ae0d25, 2021-09-20)"
   sodipodi:docname="icon.svg"
   inkscape:export-filename="icon.png"
   inkscape:export-xdpi="24576"
   inkscape:export-ydpi="24576"
   xmlns:inkscape="http://www.inkscape.org/namespaces/inkscape"
   xmlns:sodipodi="http://sodipodi.sourceforge.net/DTD/sodipodi-0.dtd"
   xmlns:xlink="http://www.w3.org/1999/xlink"
   xmlns="http://www.w3.org/2000/svg"
   xmlns:svg="http://www.w3.org/2000/svg">
  <sodipodi:namedview
     id="namedview7"
     pagecolor="#ffffff"
     bordercolor="#999999"
     borderopacity="1"
     inkscape:pageshadow="0"
     inkscape:pageopacity="0"
     inkscape:pagecheckerboard="0"
     inkscape:document-units="px"
     showgrid="true"
     units="px"
     inkscape:zoom="35.399533"
     inkscape:cx="7.9944557"
     inkscape:cy="8.0085802"
     inkscape:window-width="1920"
     inkscape:window-height="1009"
     inkscape:window-x="-8"
     inkscape:window-y="-8"
     inkscape:window-maximized="1"
     inkscape:current-layer="layer1">
    <sodipodi:guide
       position="0,4.2333333"
       orientation="0,16"
       id="guide824" />
    <sodipodi:guide
       position="4.2333333,4.2333333"
       orientation="16,0"
       id="guide826" />
    <sodipodi:guide
       position="4.2333333,0"
       orientation="0,-16"
       id="guide828" />
    <sodipodi:guide
       position="0,0"
       orientation="-16,0"
       id="guide830" />
    <inkscape:grid
       type="xygrid"
       id="grid832"
       spacingx="0.21166667"
       spacingy="0.21166667" />
  </sodipodi:namedview>
  <defs
     id="defs2">
    <linearGradient
       inkscape:collect="always"
       id="linearGradient1250">
      <stop
         style="stop-color:#ffdd55;stop-opacity:1"
         offset="0"
         id="stop1246" />
      <stop
         style="stop-color:#ff6600;stop-opacity:1"
         offset="1"
         id="stop1248" />
    </linearGradient>
    <linearGradient
       inkscape:collect="always"
       id="linearGradient992">
      <stop
         style="stop-color:#55ddff;stop-opacity:1"
         offset="0"
         id="stop988" />
      <stop
         style="stop-color:#00d4aa;stop-opacity:1"
         offset="1"
         id="stop990" />
    </linearGradient>
    <filter
       inkscape:label="Blur"
       style="color-interpolation-filters:sRGB;"
       id="filter884"
       x="-0.062992124"
       y="-0.062992124"
       width="1.1259842"
       height="1.1259842">
      <feColorMatrix
         values="1 0 0 0 0 0 1 0 0 0 0 0 1 0 0 0 0 0 5 -1 "
         result="colormatrix"
         id="feColorMatrix880" />
      <feComposite
         in2="colormatrix"
         operator="arithmetic"
         k2="0.5"
         result="fbSourceGraphic"
         id="feComposite882" />
      <feColorMatrix
         result="fbSourceGraphicAlpha"
         in="fbSourceGraphic"
         values="0 0 0 -1 0 0 0 0 -1 0 0 0 0 -1 0 0 0 0 1 0"
         id="feColorMatrix908" />
      <feGaussianBlur
         id="feGaussianBlur910"
         stdDeviation="0.1 0.1"
         result="blur"
         in="fbSourceGraphic" />
    </filter>
    <linearGradient
       inkscape:collect="always"
       xlink:href="#linearGradient992"
       id="linearGradient994"
       x1="3.175"
       y1="1.0583334"
       x2="1.0583334"
       y2="3.175"
       gradientUnits="userSpaceOnUse" />
    <linearGradient
       inkscape:collect="always"
       xlink:href="#linearGradient1250"
       id="linearGradient1252"
       x1="3.175"
       y1="1.0583334"
       x2="1.0583334"
       y2="3.175"
       gradientUnits="userSpaceOnUse"
       gradientTransform="scale(3.7795273)" />
    <filter
       inkscape:label="Blur"
       style="color-interpolation-filters:sRGB;"
       id="filter1795"
       x="-0.080995531"
       y="-0.090320572"
       width="1.1619911"
       height="1.1806411">
      <feColorMatrix
         values="1 0 0 0 0 0 1 0 0 0 0 0 1 0 0 0 0 0 5 -1 "
         result="colormatrix"
         id="feColorMatrix1791" />
      <feComposite
         in2="colormatrix"
         operator="arithmetic"
         k2="0.5"
         result="fbSourceGraphic"
         id="feComposite1793" />
      <feColorMatrix
         result="fbSourceGraphicAlpha"
         in="fbSourceGraphic"
         values="0 0 0 -1 0 0 0 0 -1 0 0 0 0 -1 0 0 0 0 1 0"
         id="feColorMatrix1815" />
      <feGaussianBlur
         id="feGaussianBlur1817"
         stdDeviation="0.1 0.1"
         result="blur"
         in="fbSourceGraphic" />
    </filter>
  </defs>
  <g
     inkscape:label="Layer 1"
     inkscape:groupmode="layer"
     id="layer1">
    <circle
       style="fill:#000000;stroke-width:0.264583;stroke-linecap:round;stroke-linejoin:round;paint-order:stroke fill markers;filter:url(#filter884)"
       id="path856"
       cx="2.1166666"
       cy="2.1166666"
       r="1.9050001" />
    <circle
       style="fill:url(#linearGradient994);stroke-width:0.264583;stroke-linecap:round;stroke-linejoin:round;paint-order:stroke fill markers;fill-opacity:1"
       id="path956"
       cx="2.1166666"
       cy="2.1166666"
       r="1.9050001" />
    <path
       id="path1192-1"
       style="fill:#000000;fill-opacity:1;stroke-width:0.264583;stroke-linecap:round;stroke-linejoin:round;paint-order:stroke fill markers;filter:url(#filter1795)"
       d="M 1.2153263,0.94112292 A 1.4816665,1.4816665 0 0 0 0.635,2.1167617 1.4816665,1.4816665 0 0 0 2.1165633,3.5983249 1.4816665,1.4816665 0 0 0 3.5981265,2.1167617 1.4816665,1.4816665 0 0 0 3.018317,0.94215652 0.52916663,1.0583332 0 0 1 3.1748967,1.6935318 0.52916663,1.0583332 0 0 1 2.64573,2.7518652 0.52916663,1.0583332 0 0 1 2.1274153,1.9048884 H 2.1057113 A 0.52916663,1.0583332 0 0 1 1.5873966,2.7518652 0.52916663,1.0583332 0 0 1 1.05823,1.6935318 0.52916663,1.0583332 0 0 1 1.2153263,0.94112292 Z" />
    <path
       id="path1192"
       style="fill:url(#linearGradient1252);fill-opacity:1;stroke-width:0.999999;stroke-linecap:round;stroke-linejoin:round;paint-order:stroke fill markers"
       d="M 4.59375 3.5566406 A 5.5999994 5.5999994 0 0 0 2.4003906 8 A 5.5999994 5.5999994 0 0 0 8 13.599609 A 5.5999994 5.5999994 0 0 0 13.599609 8 A 5.5999994 5.5999994 0 0 0 11.408203 3.5605469 A 1.9999999 3.9999997 0 0 1 12 6.4003906 A 1.9999999 3.9999997 0 0 1 10 10.400391 A 1.9999999 3.9999997 0 0 1 8.0410156 7.1992188 L 7.9589844 7.1992188 A 1.9999999 3.9999996 0 0 1 6 10.400391 A 1.9999999 3.9999996 0 0 1 4 6.4003906 A 1.9999999 3.9999996 0 0 1 4.59375 3.5566406 z "
       transform="scale(0.26458333)" />
  </g>
</svg>
